<?xml version="1.0" encoding="utf-8" standalone="no"?>
<!DOCTYPE svg PUBLIC "-//W3C//DTD SVG 1.1//EN"
  "http://www.w3.org/Graphics/SVG/1.1/DTD/svg11.dtd">
<svg xmlns:xlink="http://www.w3.org/1999/xlink" width="416.802812pt" height="326.630125pt" viewBox="0 0 416.802812 326.630125" xmlns="http://www.w3.org/2000/svg" version="1.1">
 <metadata>
  <rdf:RDF xmlns:dc="http://purl.org/dc/elements/1.1/" xmlns:cc="http://creativecommons.org/ns#" xmlns:rdf="http://www.w3.org/1999/02/22-rdf-syntax-ns#">
   <cc:Work>
    <dc:type rdf:resource="http://purl.org/dc/dcmitype/StillImage"/>
    <dc:date>2026-09-29T19:51:00.832892</dc:date>
    <dc:format>image/svg+xml</dc:format>
    <dc:creator>
     <cc:Agent>
      <dc:title>Matplotlib v3.11.1, https://matplotlib.org/</dc:title>
     </cc:Agent>
    </dc:creator>
   </cc:Work>
  </rdf:RDF>
 </metadata>
 <defs>
  <style type="text/css">*{stroke-linejoin: round; stroke-linecap: butt}</style>
 </defs>
 <g id="figure_1">
  <g id="patch_1">
   <path d="M 0 326.630125 
L 416.802812 326.630125 
L 416.802812 0 
L 0 0 
z
" style="fill: #ffffff"/>
  </g>
  <g id="axes_1">
   <g id="patch_2">
    <path d="M 52.482813 288.430125 
L 409.602813 288.430125 
L 409.602813 22.318125 
L 52.482813 22.318125 
z
" style="fill: #ffffff"/>
   </g>
   <g id="matplotlib.axis_1">
    <g id="xtick_1">
     <g id="line2d_1">
      <path d="M 68.71554 288.430125 
L 68.71554 22.318125 
" clip-path="url(#pc520d14586)" style="fill: none; stroke: #b0b0b0; stroke-width: 0.8; stroke-linecap: square"/>
     </g>
     <g id="line2d_2">
      <defs>
       <path id="m78cf5f661e" d="M 0 0 
L 0 3.5 
" style="stroke: #000000; stroke-width: 0.8"/>
      </defs>
      <g>
       <use xlink:href="#m78cf5f661e" x="68.71554" y="288.430125" style="stroke: #000000; stroke-width: 0.8"/>
      </g>
     </g>
     <g id="text_1">
      <!-- 0.0 -->
      <g transform="translate(60.763977 303.027781) scale(0.1 -0.1)">
       <defs>
        <path id="DejaVuSans-13" d="M 2034 4250 
Q 1547 4250 1301 3770 
Q 1056 3291 1056 2328 
Q 1056 1369 1301 889 
Q 1547 409 2034 409 
Q 2525 409 2770 889 
Q 3016 1369 3016 2328 
Q 3016 3291 2770 3770 
Q 2525 4250 2034 4250 
z
M 2034 4750 
Q 2819 4750 3233 4129 
Q 3647 3509 3647 2328 
Q 3647 1150 3233 529 
Q 2819 -91 2034 -91 
Q 1250 -91 836 529 
Q 422 1150 422 2328 
Q 422 3509 836 4129 
Q 1250 4750 2034 4750 
z
" transform="scale(0.015625)"/>
        <path id="DejaVuSans-11" d="M 684 794 
L 1344 794 
L 1344 0 
L 684 0 
L 684 794 
z
" transform="scale(0.015625)"/>
       </defs>
       <use xlink:href="#DejaVuSans-13"/>
       <use xlink:href="#DejaVuSans-11" transform="translate(63.625 0)"/>
       <use xlink:href="#DejaVuSans-13" transform="translate(95.40625 0)"/>
      </g>
     </g>
    </g>
    <g id="xtick_2">
     <g id="line2d_3">
      <path d="M 122.824631 288.430125 
L 122.824631 22.318125 
" clip-path="url(#pc520d14586)" style="fill: none; stroke: #b0b0b0; stroke-width: 0.8; stroke-linecap: square"/>
     </g>
     <g id="line2d_4">
      <g>
       <use xlink:href="#m78cf5f661e" x="122.824631" y="288.430125" style="stroke: #000000; stroke-width: 0.8"/>
      </g>
     </g>
     <g id="text_2">
      <!-- 0.5 -->
      <g transform="translate(114.873068 303.027781) scale(0.1 -0.1)">
       <defs>
        <path id="DejaVuSans-18" d="M 691 4666 
L 3169 4666 
L 3169 4134 
L 1269 4134 
L 1269 2991 
Q 1406 3038 1543 3061 
Q 1681 3084 1819 3084 
Q 2600 3084 3056 2656 
Q 3513 2228 3513 1497 
Q 3513 744 3044 326 
Q 2575 -91 1722 -91 
Q 1428 -91 1123 -41 
Q 819 9 494 109 
L 494 744 
Q 775 591 1075 516 
Q 1375 441 1709 441 
Q 2250 441 2565 725 
Q 2881 1009 2881 1497 
Q 2881 1984 2565 2268 
Q 2250 2553 1709 2553 
Q 1456 2553 1204 2497 
Q 953 2441 691 2322 
L 691 4666 
z
" transform="scale(0.015625)"/>
       </defs>
       <use xlink:href="#DejaVuSans-13"/>
       <use xlink:href="#DejaVuSans-11" transform="translate(63.625 0)"/>
       <use xlink:href="#DejaVuSans-18" transform="translate(95.40625 0)"/>
      </g>
     </g>
    </g>
    <g id="xtick_3">
     <g id="line2d_5">
      <path d="M 176.933722 288.430125 
L 176.933722 22.318125 
" clip-path="url(#pc520d14586)" style="fill: none; stroke: #b0b0b0; stroke-width: 0.8; stroke-linecap: square"/>
     </g>
     <g id="line2d_6">
      <g>
       <use xlink:href="#m78cf5f661e" x="176.933722" y="288.430125" style="stroke: #000000; stroke-width: 0.8"/>
      </g>
     </g>
     <g id="text_3">
      <!-- 1.0 -->
      <g transform="translate(168.982159 303.027781) scale(0.1 -0.1)">
       <defs>
        <path id="DejaVuSans-14" d="M 794 531 
L 1825 531 
L 1825 4091 
L 703 3866 
L 703 4441 
L 1819 4666 
L 2450 4666 
L 2450 531 
L 3481 531 
L 3481 0 
L 794 0 
L 794 531 
z
" transform="scale(0.015625)"/>
       </defs>
       <use xlink:href="#DejaVuSans-14"/>
       <use xlink:href="#DejaVuSans-11" transform="translate(63.625 0)"/>
       <use xlink:href="#DejaVuSans-13" transform="translate(95.40625 0)"/>
      </g>
     </g>
    </g>
    <g id="xtick_4">
     <g id="line2d_7">
      <path d="M 231.042812 288.430125 
L 231.042812 22.318125 
" clip-path="url(#pc520d14586)" style="fill: none; stroke: #b0b0b0; stroke-width: 0.8; stroke-linecap: square"/>
     </g>
     <g id="line2d_8">
      <g>
       <use xlink:href="#m78cf5f661e" x="231.042812" y="288.430125" style="stroke: #000000; stroke-width: 0.8"/>
      </g>
     </g>
     <g id="text_4">
      <!-- 1.5 -->
      <g transform="translate(223.09125 303.027781) scale(0.1 -0.1)">
       <use xlink:href="#DejaVuSans-14"/>
       <use xlink:href="#DejaVuSans-11" transform="translate(63.625 0)"/>
       <use xlink:href="#DejaVuSans-18" transform="translate(95.40625 0)"/>
      </g>
     </g>
    </g>
    <g id="xtick_5">
     <g id="line2d_9">
      <path d="M 285.151903 288.430125 
L 285.151903 22.318125 
" clip-path="url(#pc520d14586)" style="fill: none; stroke: #b0b0b0; stroke-width: 0.8; stroke-linecap: square"/>
     </g>
     <g id="line2d_10">
      <g>
       <use xlink:href="#m78cf5f661e" x="285.151903" y="288.430125" style="stroke: #000000; stroke-width: 0.8"/>
      </g>
     </g>
     <g id="text_5">
      <!-- 2.0 -->
      <g transform="translate(277.200341 303.027781) scale(0.1 -0.1)">
       <defs>
        <path id="DejaVuSans-15" d="M 1228 531 
L 3431 531 
L 3431 0 
L 469 0 
L 469 531 
Q 828 903 1448 1529 
Q 2069 2156 2228 2338 
Q 2531 2678 2651 2914 
Q 2772 3150 2772 3378 
Q 2772 3750 2511 3984 
Q 2250 4219 1831 4219 
Q 1534 4219 1204 4116 
Q 875 4013 500 3803 
L 500 4441 
Q 881 4594 1212 4672 
Q 1544 4750 1819 4750 
Q 2544 4750 2975 4387 
Q 3406 4025 3406 3419 
Q 3406 3131 3298 2873 
Q 3191 2616 2906 2266 
Q 2828 2175 2409 1742 
Q 1991 1309 1228 531 
z
" transform="scale(0.015625)"/>
       </defs>
       <use xlink:href="#DejaVuSans-15"/>
       <use xlink:href="#DejaVuSans-11" transform="translate(63.625 0)"/>
       <use xlink:href="#DejaVuSans-13" transform="translate(95.40625 0)"/>
      </g>
     </g>
    </g>
    <g id="xtick_6">
     <g id="line2d_11">
      <path d="M 339.260994 288.430125 
L 339.260994 22.318125 
" clip-path="url(#pc520d14586)" style="fill: none; stroke: #b0b0b0; stroke-width: 0.8; stroke-linecap: square"/>
     </g>
     <g id="line2d_12">
      <g>
       <use xlink:href="#m78cf5f661e" x="339.260994" y="288.430125" style="stroke: #000000; stroke-width: 0.8"/>
      </g>
     </g>
     <g id="text_6">
      <!-- 2.5 -->
      <g transform="translate(331.309432 303.027781) scale(0.1 -0.1)">
       <use xlink:href="#DejaVuSans-15"/>
       <use xlink:href="#DejaVuSans-11" transform="translate(63.625 0)"/>
       <use xlink:href="#DejaVuSans-18" transform="translate(95.40625 0)"/>
      </g>
     </g>
    </g>
    <g id="xtick_7">
     <g id="line2d_13">
      <path d="M 393.370085 288.430125 
L 393.370085 22.318125 
" clip-path="url(#pc520d14586)" style="fill: none; stroke: #b0b0b0; stroke-width: 0.8; stroke-linecap: square"/>
     </g>
     <g id="line2d_14">
      <g>
       <use xlink:href="#m78cf5f661e" x="393.370085" y="288.430125" style="stroke: #000000; stroke-width: 0.8"/>
      </g>
     </g>
     <g id="text_7">
      <!-- 3.0 -->
      <g transform="translate(385.418523 303.027781) scale(0.1 -0.1)">
       <defs>
        <path id="DejaVuSans-16" d="M 2597 2516 
Q 3050 2419 3304 2112 
Q 3559 1806 3559 1356 
Q 3559 666 3084 287 
Q 2609 -91 1734 -91 
Q 1441 -91 1130 -33 
Q 819 25 488 141 
L 488 750 
Q 750 597 1062 519 
Q 1375 441 1716 441 
Q 2309 441 2620 675 
Q 2931 909 2931 1356 
Q 2931 1769 2642 2001 
Q 2353 2234 1838 2234 
L 1294 2234 
L 1294 2753 
L 1863 2753 
Q 2328 2753 2575 2939 
Q 2822 3125 2822 3475 
Q 2822 3834 2567 4026 
Q 2313 4219 1838 4219 
Q 1578 4219 1281 4162 
Q 984 4106 628 3988 
L 628 4550 
Q 988 4650 1302 4700 
Q 1616 4750 1894 4750 
Q 2613 4750 3031 4423 
Q 3450 4097 3450 3541 
Q 3450 3153 3228 2886 
Q 3006 2619 2597 2516 
z
" transform="scale(0.015625)"/>
       </defs>
       <use xlink:href="#DejaVuSans-16"/>
       <use xlink:href="#DejaVuSans-11" transform="translate(63.625 0)"/>
       <use xlink:href="#DejaVuSans-13" transform="translate(95.40625 0)"/>
      </g>
     </g>
    </g>
    <g id="text_8">
     <!-- x -->
     <g transform="translate(228.083438 317.027781) scale(0.1 -0.1)">
      <defs>
       <path id="DejaVuSans-5b" d="M 3513 3500 
L 2247 1797 
L 3578 0 
L 2900 0 
L 1881 1375 
L 863 0 
L 184 0 
L 1544 1831 
L 300 3500 
L 978 3500 
L 1906 2253 
L 2834 3500 
L 3513 3500 
z
" transform="scale(0.015625)"/>
      </defs>
      <use xlink:href="#DejaVuSans-5b"/>
     </g>
    </g>
   </g>
   <g id="matplotlib.axis_2">
    <g id="ytick_1">
     <g id="line2d_15">
      <path d="M 52.482813 263.021417 
L 409.602813 263.021417 
" clip-path="url(#pc520d14586)" style="fill: none; stroke: #b0b0b0; stroke-width: 0.8; stroke-linecap: square"/>
     </g>
     <g id="line2d_16">
      <defs>
       <path id="mb7e1d2ebb4" d="M 0 0 
L -3.5 0 
" style="stroke: #000000; stroke-width: 0.8"/>
      </defs>
      <g>
       <use xlink:href="#mb7e1d2ebb4" x="52.482813" y="263.021417" style="stroke: #000000; stroke-width: 0.8"/>
      </g>
     </g>
     <g id="text_9">
      <!-- −1.0 -->
      <g transform="translate(21.2 266.820245) scale(0.1 -0.1)">
       <defs>
        <path id="DejaVuSans-c9c" d="M 678 2272 
L 4684 2272 
L 4684 1741 
L 678 1741 
L 678 2272 
z
" transform="scale(0.015625)"/>
       </defs>
       <use xlink:href="#DejaVuSans-c9c"/>
       <use xlink:href="#DejaVuSans-14" transform="translate(83.796875 0)"/>
       <use xlink:href="#DejaVuSans-11" transform="translate(147.421875 0)"/>
       <use xlink:href="#DejaVuSans-13" transform="translate(179.203125 0)"/>
      </g>
     </g>
    </g>
    <g id="ytick_2">
     <g id="line2d_17">
      <path d="M 52.482813 206.156159 
L 409.602813 206.156159 
" clip-path="url(#pc520d14586)" style="fill: none; stroke: #b0b0b0; stroke-width: 0.8; stroke-linecap: square"/>
     </g>
     <g id="line2d_18">
      <g>
       <use xlink:href="#mb7e1d2ebb4" x="52.482813" y="206.156159" style="stroke: #000000; stroke-width: 0.8"/>
      </g>
     </g>
     <g id="text_10">
      <!-- −0.5 -->
      <g transform="translate(21.2 209.954987) scale(0.1 -0.1)">
       <use xlink:href="#DejaVuSans-c9c"/>
       <use xlink:href="#DejaVuSans-13" transform="translate(83.796875 0)"/>
       <use xlink:href="#DejaVuSans-11" transform="translate(147.421875 0)"/>
       <use xlink:href="#DejaVuSans-18" transform="translate(179.203125 0)"/>
      </g>
     </g>
    </g>
    <g id="ytick_3">
     <g id="line2d_19">
      <path d="M 52.482813 149.290902 
L 409.602813 149.290902 
" clip-path="url(#pc520d14586)" style="fill: none; stroke: #b0b0b0; stroke-width: 0.8; stroke-linecap: square"/>
     </g>
     <g id="line2d_20">
      <g>
       <use xlink:href="#mb7e1d2ebb4" x="52.482813" y="149.290902" style="stroke: #000000; stroke-width: 0.8"/>
      </g>
     </g>
     <g id="text_11">
      <!-- 0.0 -->
      <g transform="translate(29.579687 153.08973) scale(0.1 -0.1)">
       <use xlink:href="#DejaVuSans-13"/>
       <use xlink:href="#DejaVuSans-11" transform="translate(63.625 0)"/>
       <use xlink:href="#DejaVuSans-13" transform="translate(95.40625 0)"/>
      </g>
     </g>
    </g>
    <g id="ytick_4">
     <g id="line2d_21">
      <path d="M 52.482813 92.425644 
L 409.602813 92.425644 
" clip-path="url(#pc520d14586)" style="fill: none; stroke: #b0b0b0; stroke-width: 0.8; stroke-linecap: square"/>
     </g>
     <g id="line2d_22">
      <g>
       <use xlink:href="#mb7e1d2ebb4" x="52.482813" y="92.425644" style="stroke: #000000; stroke-width: 0.8"/>
      </g>
     </g>
     <g id="text_12">
      <!-- 0.5 -->
      <g transform="translate(29.579687 96.224472) scale(0.1 -0.1)">
       <use xlink:href="#DejaVuSans-13"/>
       <use xlink:href="#DejaVuSans-11" transform="translate(63.625 0)"/>
       <use xlink:href="#DejaVuSans-18" transform="translate(95.40625 0)"/>
      </g>
     </g>
    </g>
    <g id="ytick_5">
     <g id="line2d_23">
      <path d="M 52.482813 35.560386 
L 409.602813 35.560386 
" clip-path="url(#pc520d14586)" style="fill: none; stroke: #b0b0b0; stroke-width: 0.8; stroke-linecap: square"/>
     </g>
     <g id="line2d_24">
      <g>
       <use xlink:href="#mb7e1d2ebb4" x="52.482813" y="35.560386" style="stroke: #000000; stroke-width: 0.8"/>
      </g>
     </g>
     <g id="text_13">
      <!-- 1.0 -->
      <g transform="translate(29.579687 39.359214) scale(0.1 -0.1)">
       <use xlink:href="#DejaVuSans-14"/>
       <use xlink:href="#DejaVuSans-11" transform="translate(63.625 0)"/>
       <use xlink:href="#DejaVuSans-13" transform="translate(95.40625 0)"/>
      </g>
     </g>
    </g>
    <g id="text_14">
     <!-- y -->
     <g transform="translate(14.797656 158.3335) rotate(-90) scale(0.1 -0.1)">
      <defs>
       <path id="DejaVuSans-5c" d="M 2059 -325 
Q 1816 -950 1584 -1140 
Q 1353 -1331 966 -1331 
L 506 -1331 
L 506 -850 
L 844 -850 
Q 1081 -850 1212 -737 
Q 1344 -625 1503 -206 
L 1606 56 
L 191 3500 
L 800 3500 
L 1894 763 
L 2988 3500 
L 3597 3500 
L 2059 -325 
z
" transform="scale(0.015625)"/>
      </defs>
      <use xlink:href="#DejaVuSans-5c"/>
     </g>
    </g>
   </g>
   <g id="line2d_25">
    <defs>
     <path id="mfda416f648" d="M 0 4 
C 1.060812 4 2.078319 3.578535 2.828427 2.828427 
C 3.578535 2.078319 4 1.060812 4 0 
C 4 -1.060812 3.578535 -2.078319 2.828427 -2.828427 
C 2.078319 -3.578535 1.060812 -4 0 -4 
C -1.060812 -4 -2.078319 -3.578535 -2.828427 -2.828427 
C -3.578535 -2.078319 -4 -1.060812 -4 0 
C -4 1.060812 -3.578535 2.078319 -2.828427 2.828427 
C -2.078319 3.578535 -1.060812 4 0 4 
z
" style="stroke: #1f77b4"/>
    </defs>
    <g clip-path="url(#pc520d14586)">
     <use xlink:href="#mfda416f648" x="68.71554" y="35.560386" style="fill: #1f77b4; stroke: #1f77b4"/>
     <use xlink:href="#mfda416f648" x="176.933722" y="263.021417" style="fill: #1f77b4; stroke: #1f77b4"/>
     <use xlink:href="#mfda416f648" x="285.151903" y="149.290902" style="fill: #1f77b4; stroke: #1f77b4"/>
     <use xlink:href="#mfda416f648" x="393.370085" y="92.425644" style="fill: #1f77b4; stroke: #1f77b4"/>
    </g>
   </g>
   <g id="line2d_26">
    <path d="M 68.71554 35.560386 
L 71.994879 45.32249 
L 75.274217 55.068771 
L 78.553556 64.783404 
L 81.832895 74.450566 
L 85.112234 84.054434 
L 88.391573 93.579184 
L 91.670912 103.008993 
L 94.950251 112.328036 
L 98.229589 121.52049 
L 101.508928 130.570532 
L 104.788267 139.462339 
L 108.067606 148.180085 
L 111.346945 156.707949 
L 114.626284 165.030105 
L 117.905622 173.130732 
L 121.184961 180.994004 
L 124.4643 188.604099 
L 127.743639 195.945193 
L 131.022978 203.001462 
L 134.302317 209.757082 
L 137.581655 216.196231 
L 140.860994 222.303084 
L 144.140333 228.061818 
L 147.419672 233.45661 
L 150.699011 238.471635 
L 153.97835 243.09107 
L 157.257689 247.299092 
L 160.537027 251.079876 
L 163.816366 254.4176 
L 167.095705 257.29644 
L 170.375044 259.700572 
L 173.654383 261.614172 
L 176.933722 263.021417 
L 180.21306 263.912813 
L 183.492399 264.304183 
L 186.771738 264.217681 
L 190.051077 263.675459 
L 193.330416 262.699671 
L 196.609755 261.312469 
L 199.889093 259.536006 
L 203.168432 257.392436 
L 206.447771 254.903912 
L 209.72711 252.092587 
L 213.006449 248.980613 
L 216.285788 245.590143 
L 219.565127 241.943332 
L 222.844465 238.062331 
L 226.123804 233.969294 
L 229.403143 229.686374 
L 232.682482 225.235724 
L 235.961821 220.639497 
L 239.24116 215.919846 
L 242.520498 211.098923 
L 245.799837 206.198883 
L 249.079176 201.241878 
L 252.358515 196.250061 
L 255.637854 191.245585 
L 258.917193 186.250603 
L 262.196532 181.287268 
L 265.47587 176.377734 
L 268.755209 171.544152 
L 272.034548 166.808678 
L 275.313887 162.193462 
L 278.593226 157.720659 
L 281.872565 153.412421 
L 285.151903 149.290902 
L 288.431242 145.373507 
L 291.710581 141.658654 
L 294.98992 138.140013 
L 298.269259 134.811256 
L 301.548598 131.666053 
L 304.827936 128.698074 
L 308.107275 125.900989 
L 311.386614 123.26847 
L 314.665953 120.794187 
L 317.945292 118.471811 
L 321.224631 116.295011 
L 324.50397 114.25746 
L 327.783308 112.352826 
L 331.062647 110.574781 
L 334.341986 108.916996 
L 337.621325 107.37314 
L 340.900664 105.936885 
L 344.180003 104.601901 
L 347.459341 103.361859 
L 350.73868 102.210428 
L 354.018019 101.141281 
L 357.297358 100.148086 
L 360.576697 99.224516 
L 363.856036 98.36424 
L 367.135374 97.560928 
L 370.414713 96.808253 
L 373.694052 96.099883 
L 376.973391 95.42949 
L 380.25273 94.790744 
L 383.532069 94.177316 
L 386.811408 93.582876 
L 390.090746 93.001095 
L 393.370085 92.425644 
" clip-path="url(#pc520d14586)" style="fill: none; stroke: #ff7f0e; stroke-width: 1.5; stroke-linecap: square"/>
   </g>
   <g id="line2d_27">
    <path d="M 68.71554 35.560386 
L 71.994879 34.422353 
L 75.274217 34.414125 
L 78.553556 35.474939 
L 81.832895 37.544032 
L 85.112234 40.560643 
L 88.391573 44.464007 
L 91.670912 49.193364 
L 94.950251 54.687949 
L 98.229589 60.887001 
L 101.508928 67.729757 
L 104.788267 75.155455 
L 108.067606 83.103331 
L 111.346945 91.512622 
L 114.626284 100.322568 
L 117.905622 109.472404 
L 121.184961 118.901369 
L 124.4643 128.548699 
L 127.743639 138.353632 
L 131.022978 148.255406 
L 134.302317 158.193257 
L 137.581655 168.106423 
L 140.860994 177.934143 
L 144.140333 187.615652 
L 147.419672 197.090188 
L 150.699011 206.296989 
L 153.97835 215.175293 
L 157.257689 223.664336 
L 160.537027 231.703355 
L 163.816366 239.23159 
L 167.095705 246.188275 
L 170.375044 252.51265 
L 173.654383 258.143952 
L 176.933722 263.021417 
L 180.21306 267.099474 
L 183.492399 270.393314 
L 186.771738 272.933318 
L 190.051077 274.749867 
L 193.330416 275.873342 
L 196.609755 276.334125 
L 199.889093 276.162597 
L 203.168432 275.38914 
L 206.447771 274.044134 
L 209.72711 272.157961 
L 213.006449 269.761003 
L 216.285788 266.88364 
L 219.565127 263.556255 
L 222.844465 259.809227 
L 226.123804 255.672939 
L 229.403143 251.177772 
L 232.682482 246.354107 
L 235.961821 241.232325 
L 239.24116 235.842808 
L 242.520498 230.215937 
L 245.799837 224.382094 
L 249.079176 218.371659 
L 252.358515 212.215014 
L 255.637854 205.942541 
L 258.917193 199.58462 
L 262.196532 193.171633 
L 265.47587 186.733961 
L 268.755209 180.301986 
L 272.034548 173.906088 
L 275.313887 167.576649 
L 278.593226 161.344051 
L 281.872565 155.238675 
L 285.151903 149.290902 
L 288.431242 143.526999 
L 291.710581 137.956776 
L 294.98992 132.585931 
L 298.269259 127.42016 
L 301.548598 122.465159 
L 304.827936 117.726625 
L 308.107275 113.210254 
L 311.386614 108.921743 
L 314.665953 104.866788 
L 317.945292 101.051086 
L 321.224631 97.480334 
L 324.50397 94.160227 
L 327.783308 91.096462 
L 331.062647 88.294736 
L 334.341986 85.760745 
L 337.621325 83.500186 
L 340.900664 81.518756 
L 344.180003 79.82215 
L 347.459341 78.416065 
L 350.73868 77.306198 
L 354.018019 76.498245 
L 357.297358 75.997903 
L 360.576697 75.810868 
L 363.856036 75.942837 
L 367.135374 76.399506 
L 370.414713 77.186571 
L 373.694052 78.30973 
L 376.973391 79.774679 
L 380.25273 81.587114 
L 383.532069 83.752731 
L 386.811408 86.277227 
L 390.090746 89.1663 
L 393.370085 92.425644 
" clip-path="url(#pc520d14586)" style="fill: none; stroke-dasharray: 5.55,2.4; stroke-dashoffset: 0; stroke: #2ca02c; stroke-width: 1.5"/>
   </g>
   <g id="patch_3">
    <path d="M 52.482813 288.430125 
L 52.482813 22.318125 
" style="fill: none; stroke: #000000; stroke-width: 0.8; stroke-linejoin: miter; stroke-linecap: square"/>
   </g>
   <g id="patch_4">
    <path d="M 409.602813 288.430125 
L 409.602813 22.318125 
" style="fill: none; stroke: #000000; stroke-width: 0.8; stroke-linejoin: miter; stroke-linecap: square"/>
   </g>
   <g id="patch_5">
    <path d="M 52.482813 288.430125 
L 409.602813 288.430125 
" style="fill: none; stroke: #000000; stroke-width: 0.8; stroke-linejoin: miter; stroke-linecap: square"/>
   </g>
   <g id="patch_6">
    <path d="M 52.482813 22.318125 
L 409.602813 22.318125 
" style="fill: none; stroke: #000000; stroke-width: 0.8; stroke-linejoin: miter; stroke-linecap: square"/>
   </g>
   <g id="text_15">
    <!-- Cubic Spline Interpolation -->
    <g transform="translate(153.615625 16.318125) scale(0.12 -0.12)">
     <defs>
      <path id="DejaVuSans-26" d="M 4122 4306 
L 4122 3641 
Q 3803 3938 3442 4084 
Q 3081 4231 2675 4231 
Q 1875 4231 1450 3742 
Q 1025 3253 1025 2328 
Q 1025 1406 1450 917 
Q 1875 428 2675 428 
Q 3081 428 3442 575 
Q 3803 722 4122 1019 
L 4122 359 
Q 3791 134 3420 21 
Q 3050 -91 2638 -91 
Q 1578 -91 968 557 
Q 359 1206 359 2328 
Q 359 3453 968 4101 
Q 1578 4750 2638 4750 
Q 3056 4750 3426 4639 
Q 3797 4528 4122 4306 
z
" transform="scale(0.015625)"/>
      <path id="DejaVuSans-58" d="M 544 1381 
L 544 3500 
L 1119 3500 
L 1119 1403 
Q 1119 906 1312 657 
Q 1506 409 1894 409 
Q 2359 409 2629 706 
Q 2900 1003 2900 1516 
L 2900 3500 
L 3475 3500 
L 3475 0 
L 2900 0 
L 2900 538 
Q 2691 219 2414 64 
Q 2138 -91 1772 -91 
Q 1169 -91 856 284 
Q 544 659 544 1381 
z
M 1991 3584 
L 1991 3584 
z
" transform="scale(0.015625)"/>
      <path id="DejaVuSans-45" d="M 3116 1747 
Q 3116 2381 2855 2742 
Q 2594 3103 2138 3103 
Q 1681 3103 1420 2742 
Q 1159 2381 1159 1747 
Q 1159 1113 1420 752 
Q 1681 391 2138 391 
Q 2594 391 2855 752 
Q 3116 1113 3116 1747 
z
M 1159 2969 
Q 1341 3281 1617 3432 
Q 1894 3584 2278 3584 
Q 2916 3584 3314 3078 
Q 3713 2572 3713 1747 
Q 3713 922 3314 415 
Q 2916 -91 2278 -91 
Q 1894 -91 1617 61 
Q 1341 213 1159 525 
L 1159 0 
L 581 0 
L 581 4863 
L 1159 4863 
L 1159 2969 
z
" transform="scale(0.015625)"/>
      <path id="DejaVuSans-4c" d="M 603 3500 
L 1178 3500 
L 1178 0 
L 603 0 
L 603 3500 
z
M 603 4863 
L 1178 4863 
L 1178 4134 
L 603 4134 
L 603 4863 
z
" transform="scale(0.015625)"/>
      <path id="DejaVuSans-46" d="M 3122 3366 
L 3122 2828 
Q 2878 2963 2633 3030 
Q 2388 3097 2138 3097 
Q 1578 3097 1268 2742 
Q 959 2388 959 1747 
Q 959 1106 1268 751 
Q 1578 397 2138 397 
Q 2388 397 2633 464 
Q 2878 531 3122 666 
L 3122 134 
Q 2881 22 2623 -34 
Q 2366 -91 2075 -91 
Q 1284 -91 818 406 
Q 353 903 353 1747 
Q 353 2603 823 3093 
Q 1294 3584 2113 3584 
Q 2378 3584 2631 3529 
Q 2884 3475 3122 3366 
z
" transform="scale(0.015625)"/>
      <path id="DejaVuSans-3" transform="scale(0.015625)"/>
      <path id="DejaVuSans-36" d="M 3425 4513 
L 3425 3897 
Q 3066 4069 2747 4153 
Q 2428 4238 2131 4238 
Q 1616 4238 1336 4038 
Q 1056 3838 1056 3469 
Q 1056 3159 1242 3001 
Q 1428 2844 1947 2747 
L 2328 2669 
Q 3034 2534 3370 2195 
Q 3706 1856 3706 1288 
Q 3706 609 3251 259 
Q 2797 -91 1919 -91 
Q 1588 -91 1214 -16 
Q 841 59 441 206 
L 441 856 
Q 825 641 1194 531 
Q 1563 422 1919 422 
Q 2459 422 2753 634 
Q 3047 847 3047 1241 
Q 3047 1584 2836 1778 
Q 2625 1972 2144 2069 
L 1759 2144 
Q 1053 2284 737 2584 
Q 422 2884 422 3419 
Q 422 4038 858 4394 
Q 1294 4750 2059 4750 
Q 2388 4750 2728 4690 
Q 3069 4631 3425 4513 
z
" transform="scale(0.015625)"/>
      <path id="DejaVuSans-53" d="M 1159 525 
L 1159 -1331 
L 581 -1331 
L 581 3500 
L 1159 3500 
L 1159 2969 
Q 1341 3281 1617 3432 
Q 1894 3584 2278 3584 
Q 2916 3584 3314 3078 
Q 3713 2572 3713 1747 
Q 3713 922 3314 415 
Q 2916 -91 2278 -91 
Q 1894 -91 1617 61 
Q 1341 213 1159 525 
z
M 3116 1747 
Q 3116 2381 2855 2742 
Q 2594 3103 2138 3103 
Q 1681 3103 1420 2742 
Q 1159 2381 1159 1747 
Q 1159 1113 1420 752 
Q 1681 391 2138 391 
Q 2594 391 2855 752 
Q 3116 1113 3116 1747 
z
" transform="scale(0.015625)"/>
      <path id="DejaVuSans-4f" d="M 603 4863 
L 1178 4863 
L 1178 0 
L 603 0 
L 603 4863 
z
" transform="scale(0.015625)"/>
      <path id="DejaVuSans-51" d="M 3513 2113 
L 3513 0 
L 2938 0 
L 2938 2094 
Q 2938 2591 2744 2837 
Q 2550 3084 2163 3084 
Q 1697 3084 1428 2787 
Q 1159 2491 1159 1978 
L 1159 0 
L 581 0 
L 581 3500 
L 1159 3500 
L 1159 2956 
Q 1366 3272 1645 3428 
Q 1925 3584 2291 3584 
Q 2894 3584 3203 3211 
Q 3513 2838 3513 2113 
z
" transform="scale(0.015625)"/>
      <path id="DejaVuSans-48" d="M 3597 1894 
L 3597 1613 
L 953 1613 
Q 991 1019 1311 708 
Q 1631 397 2203 397 
Q 2534 397 2845 478 
Q 3156 559 3463 722 
L 3463 178 
Q 3153 47 2828 -22 
Q 2503 -91 2169 -91 
Q 1331 -91 842 396 
Q 353 884 353 1716 
Q 353 2575 817 3079 
Q 1281 3584 2069 3584 
Q 2775 3584 3186 3129 
Q 3597 2675 3597 1894 
z
M 3022 2063 
Q 3016 2534 2758 2815 
Q 2500 3097 2075 3097 
Q 1594 3097 1305 2825 
Q 1016 2553 972 2059 
L 3022 2063 
z
" transform="scale(0.015625)"/>
      <path id="DejaVuSans-2c" d="M 628 4666 
L 1259 4666 
L 1259 0 
L 628 0 
L 628 4666 
z
" transform="scale(0.015625)"/>
      <path id="DejaVuSans-57" d="M 1172 4494 
L 1172 3500 
L 2356 3500 
L 2356 3053 
L 1172 3053 
L 1172 1153 
Q 1172 725 1289 603 
Q 1406 481 1766 481 
L 2356 481 
L 2356 0 
L 1766 0 
Q 1100 0 847 248 
Q 594 497 594 1153 
L 594 3053 
L 172 3053 
L 172 3500 
L 594 3500 
L 594 4494 
L 1172 4494 
z
" transform="scale(0.015625)"/>
      <path id="DejaVuSans-55" d="M 2631 2963 
Q 2534 3019 2420 3045 
Q 2306 3072 2169 3072 
Q 1681 3072 1420 2755 
Q 1159 2438 1159 1844 
L 1159 0 
L 581 0 
L 581 3500 
L 1159 3500 
L 1159 2956 
Q 1341 3275 1631 3429 
Q 1922 3584 2338 3584 
Q 2397 3584 2469 3576 
Q 2541 3569 2628 3553 
L 2631 2963 
z
" transform="scale(0.015625)"/>
      <path id="DejaVuSans-52" d="M 1959 3097 
Q 1497 3097 1228 2736 
Q 959 2375 959 1747 
Q 959 1119 1226 758 
Q 1494 397 1959 397 
Q 2419 397 2687 759 
Q 2956 1122 2956 1747 
Q 2956 2369 2687 2733 
Q 2419 3097 1959 3097 
z
M 1959 3584 
Q 2709 3584 3137 3096 
Q 3566 2609 3566 1747 
Q 3566 888 3137 398 
Q 2709 -91 1959 -91 
Q 1206 -91 779 398 
Q 353 888 353 1747 
Q 353 2609 779 3096 
Q 1206 3584 1959 3584 
z
" transform="scale(0.015625)"/>
      <path id="DejaVuSans-44" d="M 2194 1759 
Q 1497 1759 1228 1600 
Q 959 1441 959 1056 
Q 959 750 1161 570 
Q 1363 391 1709 391 
Q 2188 391 2477 730 
Q 2766 1069 2766 1631 
L 2766 1759 
L 2194 1759 
z
M 3341 1997 
L 3341 0 
L 2766 0 
L 2766 531 
Q 2569 213 2275 61 
Q 1981 -91 1556 -91 
Q 1019 -91 701 211 
Q 384 513 384 1019 
Q 384 1609 779 1909 
Q 1175 2209 1959 2209 
L 2766 2209 
L 2766 2266 
Q 2766 2663 2505 2880 
Q 2244 3097 1772 3097 
Q 1472 3097 1187 3025 
Q 903 2953 641 2809 
L 641 3341 
Q 956 3463 1253 3523 
Q 1550 3584 1831 3584 
Q 2591 3584 2966 3190 
Q 3341 2797 3341 1997 
z
" transform="scale(0.015625)"/>
     </defs>
     <use xlink:href="#DejaVuSans-26"/>
     <use xlink:href="#DejaVuSans-58" transform="translate(69.828125 0)"/>
     <use xlink:href="#DejaVuSans-45" transform="translate(133.203125 0)"/>
     <use xlink:href="#DejaVuSans-4c" transform="translate(196.6875 0)"/>
     <use xlink:href="#DejaVuSans-46" transform="translate(224.46875 0)"/>
     <use xlink:href="#DejaVuSans-3" transform="translate(279.453125 0)"/>
     <use xlink:href="#DejaVuSans-36" transform="translate(311.234375 0)"/>
     <use xlink:href="#DejaVuSans-53" transform="translate(374.71875 0)"/>
     <use xlink:href="#DejaVuSans-4f" transform="translate(438.203125 0)"/>
     <use xlink:href="#DejaVuSans-4c" transform="translate(465.984375 0)"/>
     <use xlink:href="#DejaVuSans-51" transform="translate(493.765625 0)"/>
     <use xlink:href="#DejaVuSans-48" transform="translate(557.140625 0)"/>
     <use xlink:href="#DejaVuSans-3" transform="translate(618.671875 0)"/>
     <use xlink:href="#DejaVuSans-2c" transform="translate(650.453125 0)"/>
     <use xlink:href="#DejaVuSans-51" transform="translate(679.953125 0)"/>
     <use xlink:href="#DejaVuSans-57" transform="translate(743.328125 0)"/>
     <use xlink:href="#DejaVuSans-48" transform="translate(782.53125 0)"/>
     <use xlink:href="#DejaVuSans-55" transform="translate(844.0625 0)"/>
     <use xlink:href="#DejaVuSans-53" transform="translate(885.171875 0)"/>
     <use xlink:href="#DejaVuSans-52" transform="translate(948.65625 0)"/>
     <use xlink:href="#DejaVuSans-4f" transform="translate(1009.84375 0)"/>
     <use xlink:href="#DejaVuSans-44" transform="translate(1037.625 0)"/>
     <use xlink:href="#DejaVuSans-57" transform="translate(1098.90625 0)"/>
     <use xlink:href="#DejaVuSans-4c" transform="translate(1138.109375 0)"/>
     <use xlink:href="#DejaVuSans-52" transform="translate(1165.890625 0)"/>
     <use xlink:href="#DejaVuSans-51" transform="translate(1227.078125 0)"/>
    </g>
   </g>
   <g id="legend_1">
    <g id="patch_7">
     <path d="M 122.594375 75.320469 
L 339.49125 75.320469 
Q 341.49125 75.320469 341.49125 73.320469 
L 341.49125 29.318125 
Q 341.49125 27.318125 339.49125 27.318125 
L 122.594375 27.318125 
Q 120.594375 27.318125 120.594375 29.318125 
L 120.594375 73.320469 
Q 120.594375 75.320469 122.594375 75.320469 
z
" style="fill: #ffffff; opacity: 0.8; stroke: #cccccc; stroke-linejoin: miter"/>
    </g>
    <g id="line2d_28">
     <g>
      <use xlink:href="#mfda416f648" x="134.594375" y="35.416562" style="fill: #1f77b4; stroke: #1f77b4"/>
     </g>
    </g>
    <g id="text_16">
     <!-- Data points -->
     <g transform="translate(152.594375 38.916562) scale(0.1 -0.1)">
      <defs>
       <path id="DejaVuSans-27" d="M 1259 4147 
L 1259 519 
L 2022 519 
Q 2988 519 3436 956 
Q 3884 1394 3884 2338 
Q 3884 3275 3436 3711 
Q 2988 4147 2022 4147 
L 1259 4147 
z
M 628 4666 
L 1925 4666 
Q 3281 4666 3915 4102 
Q 4550 3538 4550 2338 
Q 4550 1131 3912 565 
Q 3275 0 1925 0 
L 628 0 
L 628 4666 
z
" transform="scale(0.015625)"/>
       <path id="DejaVuSans-56" d="M 2834 3397 
L 2834 2853 
Q 2591 2978 2328 3040 
Q 2066 3103 1784 3103 
Q 1356 3103 1142 2972 
Q 928 2841 928 2578 
Q 928 2378 1081 2264 
Q 1234 2150 1697 2047 
L 1894 2003 
Q 2506 1872 2764 1633 
Q 3022 1394 3022 966 
Q 3022 478 2636 193 
Q 2250 -91 1575 -91 
Q 1294 -91 989 -36 
Q 684 19 347 128 
L 347 722 
Q 666 556 975 473 
Q 1284 391 1588 391 
Q 1994 391 2212 530 
Q 2431 669 2431 922 
Q 2431 1156 2273 1281 
Q 2116 1406 1581 1522 
L 1381 1569 
Q 847 1681 609 1914 
Q 372 2147 372 2553 
Q 372 3047 722 3315 
Q 1072 3584 1716 3584 
Q 2034 3584 2315 3537 
Q 2597 3491 2834 3397 
z
" transform="scale(0.015625)"/>
      </defs>
      <use xlink:href="#DejaVuSans-27"/>
      <use xlink:href="#DejaVuSans-44" transform="translate(77 0)"/>
      <use xlink:href="#DejaVuSans-57" transform="translate(138.28125 0)"/>
      <use xlink:href="#DejaVuSans-44" transform="translate(177.484375 0)"/>
      <use xlink:href="#DejaVuSans-3" transform="translate(238.765625 0)"/>
      <use xlink:href="#DejaVuSans-53" transform="translate(270.546875 0)"/>
      <use xlink:href="#DejaVuSans-52" transform="translate(334.03125 0)"/>
      <use xlink:href="#DejaVuSans-4c" transform="translate(395.21875 0)"/>
      <use xlink:href="#DejaVuSans-51" transform="translate(423 0)"/>
      <use xlink:href="#DejaVuSans-57" transform="translate(486.375 0)"/>
      <use xlink:href="#DejaVuSans-56" transform="translate(525.578125 0)"/>
     </g>
    </g>
    <g id="line2d_29">
     <path d="M 124.594375 50.417344 
L 134.594375 50.417344 
L 144.594375 50.417344 
" style="fill: none; stroke: #ff7f0e; stroke-width: 1.5; stroke-linecap: square"/>
    </g>
    <g id="text_17">
     <!-- Natural Spline -->
     <g transform="translate(152.594375 53.917344) scale(0.1 -0.1)">
      <defs>
       <path id="DejaVuSans-31" d="M 628 4666 
L 1478 4666 
L 3547 763 
L 3547 4666 
L 4159 4666 
L 4159 0 
L 3309 0 
L 1241 3903 
L 1241 0 
L 628 0 
L 628 4666 
z
" transform="scale(0.015625)"/>
      </defs>
      <use xlink:href="#DejaVuSans-31"/>
      <use xlink:href="#DejaVuSans-44" transform="translate(74.8125 0)"/>
      <use xlink:href="#DejaVuSans-57" transform="translate(136.09375 0)"/>
      <use xlink:href="#DejaVuSans-58" transform="translate(175.296875 0)"/>
      <use xlink:href="#DejaVuSans-55" transform="translate(238.671875 0)"/>
      <use xlink:href="#DejaVuSans-44" transform="translate(279.78125 0)"/>
      <use xlink:href="#DejaVuSans-4f" transform="translate(341.0625 0)"/>
      <use xlink:href="#DejaVuSans-3" transform="translate(368.84375 0)"/>
      <use xlink:href="#DejaVuSans-36" transform="translate(400.625 0)"/>
      <use xlink:href="#DejaVuSans-53" transform="translate(464.109375 0)"/>
      <use xlink:href="#DejaVuSans-4f" transform="translate(527.59375 0)"/>
      <use xlink:href="#DejaVuSans-4c" transform="translate(555.375 0)"/>
      <use xlink:href="#DejaVuSans-51" transform="translate(583.15625 0)"/>
      <use xlink:href="#DejaVuSans-48" transform="translate(646.53125 0)"/>
     </g>
    </g>
    <g id="line2d_30">
     <path d="M 124.594375 65.418125 
L 134.594375 65.418125 
L 144.594375 65.418125 
" style="fill: none; stroke-dasharray: 5.55,2.4; stroke-dashoffset: 0; stroke: #2ca02c; stroke-width: 1.5"/>
    </g>
    <g id="text_18">
     <!-- Clamped Spline (S'(0)=0.5, S'(3)=-1) -->
     <g transform="translate(152.594375 68.918125) scale(0.1 -0.1)">
      <defs>
       <path id="DejaVuSans-50" d="M 3328 2828 
Q 3544 3216 3844 3400 
Q 4144 3584 4550 3584 
Q 5097 3584 5394 3201 
Q 5691 2819 5691 2113 
L 5691 0 
L 5113 0 
L 5113 2094 
Q 5113 2597 4934 2840 
Q 4756 3084 4391 3084 
Q 3944 3084 3684 2787 
Q 3425 2491 3425 1978 
L 3425 0 
L 2847 0 
L 2847 2094 
Q 2847 2600 2669 2842 
Q 2491 3084 2119 3084 
Q 1678 3084 1418 2786 
Q 1159 2488 1159 1978 
L 1159 0 
L 581 0 
L 581 3500 
L 1159 3500 
L 1159 2956 
Q 1356 3278 1631 3431 
Q 1906 3584 2284 3584 
Q 2666 3584 2933 3390 
Q 3200 3197 3328 2828 
z
" transform="scale(0.015625)"/>
       <path id="DejaVuSans-47" d="M 2906 2969 
L 2906 4863 
L 3481 4863 
L 3481 0 
L 2906 0 
L 2906 525 
Q 2725 213 2448 61 
Q 2172 -91 1784 -91 
Q 1150 -91 751 415 
Q 353 922 353 1747 
Q 353 2572 751 3078 
Q 1150 3584 1784 3584 
Q 2172 3584 2448 3432 
Q 2725 3281 2906 2969 
z
M 947 1747 
Q 947 1113 1208 752 
Q 1469 391 1925 391 
Q 2381 391 2643 752 
Q 2906 1113 2906 1747 
Q 2906 2381 2643 2742 
Q 2381 3103 1925 3103 
Q 1469 3103 1208 2742 
Q 947 2381 947 1747 
z
" transform="scale(0.015625)"/>
       <path id="DejaVuSans-b" d="M 1984 4856 
Q 1566 4138 1362 3434 
Q 1159 2731 1159 2009 
Q 1159 1288 1364 580 
Q 1569 -128 1984 -844 
L 1484 -844 
Q 1016 -109 783 600 
Q 550 1309 550 2009 
Q 550 2706 781 3412 
Q 1013 4119 1484 4856 
L 1984 4856 
z
" transform="scale(0.015625)"/>
       <path id="DejaVuSans-a" d="M 1147 4666 
L 1147 2931 
L 616 2931 
L 616 4666 
L 1147 4666 
z
" transform="scale(0.015625)"/>
       <path id="DejaVuSans-c" d="M 513 4856 
L 1013 4856 
Q 1481 4119 1714 3412 
Q 1947 2706 1947 2009 
Q 1947 1309 1714 600 
Q 1481 -109 1013 -844 
L 513 -844 
Q 928 -128 1133 580 
Q 1338 1288 1338 2009 
Q 1338 2731 1133 3434 
Q 928 4138 513 4856 
z
" transform="scale(0.015625)"/>
       <path id="DejaVuSans-20" d="M 678 2906 
L 4684 2906 
L 4684 2381 
L 678 2381 
L 678 2906 
z
M 678 1631 
L 4684 1631 
L 4684 1100 
L 678 1100 
L 678 1631 
z
" transform="scale(0.015625)"/>
       <path id="DejaVuSans-f" d="M 750 794 
L 1409 794 
L 1409 256 
L 897 -744 
L 494 -744 
L 750 256 
L 750 794 
z
" transform="scale(0.015625)"/>
       <path id="DejaVuSans-10" d="M 313 2009 
L 1997 2009 
L 1997 1497 
L 313 1497 
L 313 2009 
z
" transform="scale(0.015625)"/>
      </defs>
      <use xlink:href="#DejaVuSans-26"/>
      <use xlink:href="#DejaVuSans-4f" transform="translate(69.828125 0)"/>
      <use xlink:href="#DejaVuSans-44" transform="translate(97.609375 0)"/>
      <use xlink:href="#DejaVuSans-50" transform="translate(158.890625 0)"/>
      <use xlink:href="#DejaVuSans-53" transform="translate(256.296875 0)"/>
      <use xlink:href="#DejaVuSans-48" transform="translate(319.78125 0)"/>
      <use xlink:href="#DejaVuSans-47" transform="translate(381.3125 0)"/>
      <use xlink:href="#DejaVuSans-3" transform="translate(444.796875 0)"/>
      <use xlink:href="#DejaVuSans-36" transform="translate(476.578125 0)"/>
      <use xlink:href="#DejaVuSans-53" transform="translate(540.0625 0)"/>
      <use xlink:href="#DejaVuSans-4f" transform="translate(603.546875 0)"/>
      <use xlink:href="#DejaVuSans-4c" transform="translate(631.328125 0)"/>
      <use xlink:href="#DejaVuSans-51" transform="translate(659.109375 0)"/>
      <use xlink:href="#DejaVuSans-48" transform="translate(722.484375 0)"/>
      <use xlink:href="#DejaVuSans-3" transform="translate(784.015625 0)"/>
      <use xlink:href="#DejaVuSans-b" transform="translate(815.796875 0)"/>
      <use xlink:href="#DejaVuSans-36" transform="translate(854.8125 0)"/>
      <use xlink:href="#DejaVuSans-a" transform="translate(918.296875 0)"/>
      <use xlink:href="#DejaVuSans-b" transform="translate(945.78125 0)"/>
      <use xlink:href="#DejaVuSans-13" transform="translate(984.796875 0)"/>
      <use xlink:href="#DejaVuSans-c" transform="translate(1048.421875 0)"/>
      <use xlink:href="#DejaVuSans-20" transform="translate(1087.4375 0)"/>
      <use xlink:href="#DejaVuSans-13" transform="translate(1171.234375 0)"/>
      <use xlink:href="#DejaVuSans-11" transform="translate(1234.859375 0)"/>
      <use xlink:href="#DejaVuSans-18" transform="translate(1266.640625 0)"/>
      <use xlink:href="#DejaVuSans-f" transform="translate(1330.265625 0)"/>
      <use xlink:href="#DejaVuSans-3" transform="translate(1362.046875 0)"/>
      <use xlink:href="#DejaVuSans-36" transform="translate(1393.828125 0)"/>
      <use xlink:href="#DejaVuSans-a" transform="translate(1457.3125 0)"/>
      <use xlink:href="#DejaVuSans-b" transform="translate(1484.796875 0)"/>
      <use xlink:href="#DejaVuSans-16" transform="translate(1523.8125 0)"/>
      <use xlink:href="#DejaVuSans-c" transform="translate(1587.4375 0)"/>
      <use xlink:href="#DejaVuSans-20" transform="translate(1626.453125 0)"/>
      <use xlink:href="#DejaVuSans-10" transform="translate(1710.25 0)"/>
      <use xlink:href="#DejaVuSans-14" transform="translate(1746.328125 0)"/>
      <use xlink:href="#DejaVuSans-c" transform="translate(1809.953125 0)"/>
     </g>
    </g>
   </g>
  </g>
 </g>
 <defs>
  <clipPath id="pc520d14586">
   <rect x="52.482813" y="22.318125" width="357.12" height="266.112"/>
  </clipPath>
 </defs>
</svg>
