<?xml version="1.0" encoding="utf-8" standalone="no"?>
<!DOCTYPE svg PUBLIC "-//W3C//DTD SVG 1.1//EN"
  "http://www.w3.org/Graphics/SVG/1.1/DTD/svg11.dtd">
<svg xmlns:xlink="http://www.w3.org/1999/xlink" width="407.262187pt" height="326.630125pt" viewBox="0 0 407.262187 326.630125" xmlns="http://www.w3.org/2000/svg" version="1.1">
 <metadata>
  <rdf:RDF xmlns:dc="http://purl.org/dc/elements/1.1/" xmlns:cc="http://creativecommons.org/ns#" xmlns:rdf="http://www.w3.org/1999/02/22-rdf-syntax-ns#">
   <cc:Work>
    <dc:type rdf:resource="http://purl.org/dc/dcmitype/StillImage"/>
    <dc:date>2026-09-29T21:51:54.676271</dc:date>
    <dc:format>image/svg+xml</dc:format>
    <dc:creator>
     <cc:Agent>
      <dc:title>Matplotlib v3.11.0, https://matplotlib.org/</dc:title>
     </cc:Agent>
    </dc:creator>
   </cc:Work>
  </rdf:RDF>
 </metadata>
 <defs>
  <style type="text/css">*{stroke-linejoin: round; stroke-linecap: butt}</style>
 </defs>
 <g id="figure_1">
  <g id="patch_1">
   <path d="M -0 326.630125 
L 407.262187 326.630125 
L 407.262187 0 
L -0 0 
z
" style="fill: #ffffff"/>
  </g>
  <g id="axes_1">
   <g id="patch_2">
    <path d="M 42.942188 288.430125 
L 400.062188 288.430125 
L 400.062188 22.318125 
L 42.942188 22.318125 
z
" style="fill: #ffffff"/>
   </g>
   <g id="PathCollection_1">
    <defs>
     <path id="m04bd676845" d="M 0 3 
C 0.795609 3 1.55874 2.683901 2.12132 2.12132 
C 2.683901 1.55874 3 0.795609 3 0 
C 3 -0.795609 2.683901 -1.55874 2.12132 -2.12132 
C 1.55874 -2.683901 0.795609 -3 0 -3 
C -0.795609 -3 -1.55874 -2.683901 -2.12132 -2.12132 
C -2.683901 -1.55874 -3 -0.795609 -3 0 
C -3 0.795609 -2.683901 1.55874 -2.12132 2.12132 
C -1.55874 2.683901 -0.795609 3 0 3 
z
" style="stroke: #ffffff; stroke-width: 0.48"/>
    </defs>
    <g clip-path="url(#pb279598345)">
     <use xlink:href="#m04bd676845" x="249.478575" y="208.945567" style="fill: #1f77b4; stroke: #ffffff; stroke-width: 0.48"/>
     <use xlink:href="#m04bd676845" x="154.384485" y="216.654791" style="fill: #1f77b4; stroke: #ffffff; stroke-width: 0.48"/>
     <use xlink:href="#m04bd676845" x="270.136534" y="210.940125" style="fill: #1f77b4; stroke: #ffffff; stroke-width: 0.48"/>
     <use xlink:href="#m04bd676845" x="289.8524" y="137.281661" style="fill: #1f77b4; stroke: #ffffff; stroke-width: 0.48"/>
     <use xlink:href="#m04bd676845" x="348.292144" y="130.840022" style="fill: #1f77b4; stroke: #ffffff; stroke-width: 0.48"/>
     <use xlink:href="#m04bd676845" x="174.881557" y="173.44105" style="fill: #1f77b4; stroke: #ffffff; stroke-width: 0.48"/>
     <use xlink:href="#m04bd676845" x="383.82946" y="81.908577" style="fill: #1f77b4; stroke: #ffffff; stroke-width: 0.48"/>
     <use xlink:href="#m04bd676845" x="180.795397" y="227.953542" style="fill: #1f77b4; stroke: #ffffff; stroke-width: 0.48"/>
     <use xlink:href="#m04bd676845" x="160.409159" y="209.28297" style="fill: #1f77b4; stroke: #ffffff; stroke-width: 0.48"/>
     <use xlink:href="#m04bd676845" x="317.796789" y="168.649813" style="fill: #1f77b4; stroke: #ffffff; stroke-width: 0.48"/>
     <use xlink:href="#m04bd676845" x="144.859533" y="240.201933" style="fill: #1f77b4; stroke: #ffffff; stroke-width: 0.48"/>
     <use xlink:href="#m04bd676845" x="67.718911" y="197.921082" style="fill: #1f77b4; stroke: #ffffff; stroke-width: 0.48"/>
     <use xlink:href="#m04bd676845" x="150.764588" y="209.954437" style="fill: #1f77b4; stroke: #ffffff; stroke-width: 0.48"/>
     <use xlink:href="#m04bd676845" x="202.420512" y="276.334125" style="fill: #1f77b4; stroke: #ffffff; stroke-width: 0.48"/>
     <use xlink:href="#m04bd676845" x="195.969792" y="231.639844" style="fill: #1f77b4; stroke: #ffffff; stroke-width: 0.48"/>
     <use xlink:href="#m04bd676845" x="360.262625" y="58.055204" style="fill: #1f77b4; stroke: #ffffff; stroke-width: 0.48"/>
     <use xlink:href="#m04bd676845" x="250.863776" y="192.905101" style="fill: #1f77b4; stroke: #ffffff; stroke-width: 0.48"/>
     <use xlink:href="#m04bd676845" x="128.868878" y="220.836369" style="fill: #1f77b4; stroke: #ffffff; stroke-width: 0.48"/>
     <use xlink:href="#m04bd676845" x="121.386027" y="203.798139" style="fill: #1f77b4; stroke: #ffffff; stroke-width: 0.48"/>
     <use xlink:href="#m04bd676845" x="329.558195" y="145.413144" style="fill: #1f77b4; stroke: #ffffff; stroke-width: 0.48"/>
     <use xlink:href="#m04bd676845" x="110.571231" y="204.509621" style="fill: #1f77b4; stroke: #ffffff; stroke-width: 0.48"/>
     <use xlink:href="#m04bd676845" x="74.643305" y="163.733106" style="fill: #1f77b4; stroke: #ffffff; stroke-width: 0.48"/>
     <use xlink:href="#m04bd676845" x="372.632592" y="57.872681" style="fill: #1f77b4; stroke: #ffffff; stroke-width: 0.48"/>
     <use xlink:href="#m04bd676845" x="253.109805" y="178.289281" style="fill: #1f77b4; stroke: #ffffff; stroke-width: 0.48"/>
     <use xlink:href="#m04bd676845" x="139.276285" y="219.062512" style="fill: #1f77b4; stroke: #ffffff; stroke-width: 0.48"/>
     <use xlink:href="#m04bd676845" x="166.932762" y="222.493376" style="fill: #1f77b4; stroke: #ffffff; stroke-width: 0.48"/>
     <use xlink:href="#m04bd676845" x="372.729077" y="56.760883" style="fill: #1f77b4; stroke: #ffffff; stroke-width: 0.48"/>
     <use xlink:href="#m04bd676845" x="175.363408" y="221.552246" style="fill: #1f77b4; stroke: #ffffff; stroke-width: 0.48"/>
     <use xlink:href="#m04bd676845" x="87.880337" y="187.289832" style="fill: #1f77b4; stroke: #ffffff; stroke-width: 0.48"/>
     <use xlink:href="#m04bd676845" x="267.045508" y="177.658648" style="fill: #1f77b4; stroke: #ffffff; stroke-width: 0.48"/>
     <use xlink:href="#m04bd676845" x="225.499052" y="219.755214" style="fill: #1f77b4; stroke: #ffffff; stroke-width: 0.48"/>
     <use xlink:href="#m04bd676845" x="239.831811" y="172.622387" style="fill: #1f77b4; stroke: #ffffff; stroke-width: 0.48"/>
     <use xlink:href="#m04bd676845" x="325.515386" y="136.179796" style="fill: #1f77b4; stroke: #ffffff; stroke-width: 0.48"/>
     <use xlink:href="#m04bd676845" x="283.736531" y="179.043135" style="fill: #1f77b4; stroke: #ffffff; stroke-width: 0.48"/>
     <use xlink:href="#m04bd676845" x="181.228284" y="181.789133" style="fill: #1f77b4; stroke: #ffffff; stroke-width: 0.48"/>
     <use xlink:href="#m04bd676845" x="157.651826" y="245.576577" style="fill: #1f77b4; stroke: #ffffff; stroke-width: 0.48"/>
     <use xlink:href="#m04bd676845" x="362.983691" y="101.137133" style="fill: #1f77b4; stroke: #ffffff; stroke-width: 0.48"/>
     <use xlink:href="#m04bd676845" x="86.939561" y="205.443381" style="fill: #1f77b4; stroke: #ffffff; stroke-width: 0.48"/>
     <use xlink:href="#m04bd676845" x="323.79057" y="119.078207" style="fill: #1f77b4; stroke: #ffffff; stroke-width: 0.48"/>
     <use xlink:href="#m04bd676845" x="253.353009" y="214.466345" style="fill: #1f77b4; stroke: #ffffff; stroke-width: 0.48"/>
     <use xlink:href="#m04bd676845" x="170.811784" y="201.624803" style="fill: #1f77b4; stroke: #ffffff; stroke-width: 0.48"/>
     <use xlink:href="#m04bd676845" x="90.61011" y="205.813728" style="fill: #1f77b4; stroke: #ffffff; stroke-width: 0.48"/>
     <use xlink:href="#m04bd676845" x="161.402678" y="238.686284" style="fill: #1f77b4; stroke: #ffffff; stroke-width: 0.48"/>
     <use xlink:href="#m04bd676845" x="87.531517" y="198.900175" style="fill: #1f77b4; stroke: #ffffff; stroke-width: 0.48"/>
     <use xlink:href="#m04bd676845" x="312.108229" y="145.010134" style="fill: #1f77b4; stroke: #ffffff; stroke-width: 0.48"/>
     <use xlink:href="#m04bd676845" x="265.037973" y="166.836945" style="fill: #1f77b4; stroke: #ffffff; stroke-width: 0.48"/>
     <use xlink:href="#m04bd676845" x="59.174915" y="189.289709" style="fill: #1f77b4; stroke: #ffffff; stroke-width: 0.48"/>
     <use xlink:href="#m04bd676845" x="108.169198" y="188.282702" style="fill: #1f77b4; stroke: #ffffff; stroke-width: 0.48"/>
     <use xlink:href="#m04bd676845" x="228.097868" y="187.863269" style="fill: #1f77b4; stroke: #ffffff; stroke-width: 0.48"/>
     <use xlink:href="#m04bd676845" x="210.047887" y="218.372293" style="fill: #1f77b4; stroke: #ffffff; stroke-width: 0.48"/>
     <use xlink:href="#m04bd676845" x="186.129245" y="215.009424" style="fill: #1f77b4; stroke: #ffffff; stroke-width: 0.48"/>
     <use xlink:href="#m04bd676845" x="153.69088" y="220.530528" style="fill: #1f77b4; stroke: #ffffff; stroke-width: 0.48"/>
     <use xlink:href="#m04bd676845" x="121.496654" y="234.074694" style="fill: #1f77b4; stroke: #ffffff; stroke-width: 0.48"/>
     <use xlink:href="#m04bd676845" x="159.546453" y="191.885373" style="fill: #1f77b4; stroke: #ffffff; stroke-width: 0.48"/>
     <use xlink:href="#m04bd676845" x="92.306495" y="218.175089" style="fill: #1f77b4; stroke: #ffffff; stroke-width: 0.48"/>
     <use xlink:href="#m04bd676845" x="197.229669" y="192.250479" style="fill: #1f77b4; stroke: #ffffff; stroke-width: 0.48"/>
     <use xlink:href="#m04bd676845" x="122.898013" y="198.022225" style="fill: #1f77b4; stroke: #ffffff; stroke-width: 0.48"/>
     <use xlink:href="#m04bd676845" x="241.282508" y="185.593498" style="fill: #1f77b4; stroke: #ffffff; stroke-width: 0.48"/>
     <use xlink:href="#m04bd676845" x="109.533666" y="222.169285" style="fill: #1f77b4; stroke: #ffffff; stroke-width: 0.48"/>
     <use xlink:href="#m04bd676845" x="301.601456" y="156.321682" style="fill: #1f77b4; stroke: #ffffff; stroke-width: 0.48"/>
     <use xlink:href="#m04bd676845" x="198.613192" y="244.587854" style="fill: #1f77b4; stroke: #ffffff; stroke-width: 0.48"/>
     <use xlink:href="#m04bd676845" x="182.637998" y="219.316152" style="fill: #1f77b4; stroke: #ffffff; stroke-width: 0.48"/>
     <use xlink:href="#m04bd676845" x="344.919802" y="101.525143" style="fill: #1f77b4; stroke: #ffffff; stroke-width: 0.48"/>
     <use xlink:href="#m04bd676845" x="252.785456" y="176.330019" style="fill: #1f77b4; stroke: #ffffff; stroke-width: 0.48"/>
     <use xlink:href="#m04bd676845" x="233.300294" y="220.791479" style="fill: #1f77b4; stroke: #ffffff; stroke-width: 0.48"/>
     <use xlink:href="#m04bd676845" x="80.461872" y="210.772584" style="fill: #1f77b4; stroke: #ffffff; stroke-width: 0.48"/>
     <use xlink:href="#m04bd676845" x="375.819279" y="107.685454" style="fill: #1f77b4; stroke: #ffffff; stroke-width: 0.48"/>
     <use xlink:href="#m04bd676845" x="376.750148" y="34.414125" style="fill: #1f77b4; stroke: #ffffff; stroke-width: 0.48"/>
     <use xlink:href="#m04bd676845" x="112.15381" y="224.896332" style="fill: #1f77b4; stroke: #ffffff; stroke-width: 0.48"/>
     <use xlink:href="#m04bd676845" x="160.600312" y="191.059788" style="fill: #1f77b4; stroke: #ffffff; stroke-width: 0.48"/>
     <use xlink:href="#m04bd676845" x="100.008643" y="210.528044" style="fill: #1f77b4; stroke: #ffffff; stroke-width: 0.48"/>
     <use xlink:href="#m04bd676845" x="272.857585" y="201.502064" style="fill: #1f77b4; stroke: #ffffff; stroke-width: 0.48"/>
     <use xlink:href="#m04bd676845" x="247.268737" y="223.941475" style="fill: #1f77b4; stroke: #ffffff; stroke-width: 0.48"/>
     <use xlink:href="#m04bd676845" x="323.392852" y="104.463955" style="fill: #1f77b4; stroke: #ffffff; stroke-width: 0.48"/>
     <use xlink:href="#m04bd676845" x="195.049132" y="225.545337" style="fill: #1f77b4; stroke: #ffffff; stroke-width: 0.48"/>
     <use xlink:href="#m04bd676845" x="174.7693" y="236.400267" style="fill: #1f77b4; stroke: #ffffff; stroke-width: 0.48"/>
     <use xlink:href="#m04bd676845" x="115.999769" y="162.784775" style="fill: #1f77b4; stroke: #ffffff; stroke-width: 0.48"/>
     <use xlink:href="#m04bd676845" x="70.635891" y="179.127081" style="fill: #1f77b4; stroke: #ffffff; stroke-width: 0.48"/>
     <use xlink:href="#m04bd676845" x="247.33704" y="198.773275" style="fill: #1f77b4; stroke: #ffffff; stroke-width: 0.48"/>
     <use xlink:href="#m04bd676845" x="258.115594" y="210.684794" style="fill: #1f77b4; stroke: #ffffff; stroke-width: 0.48"/>
     <use xlink:href="#m04bd676845" x="336.308335" y="130.724665" style="fill: #1f77b4; stroke: #ffffff; stroke-width: 0.48"/>
     <use xlink:href="#m04bd676845" x="60.823888" y="180.578792" style="fill: #1f77b4; stroke: #ffffff; stroke-width: 0.48"/>
     <use xlink:href="#m04bd676845" x="137.127803" y="224.460268" style="fill: #1f77b4; stroke: #ffffff; stroke-width: 0.48"/>
     <use xlink:href="#m04bd676845" x="175.104191" y="245.094689" style="fill: #1f77b4; stroke: #ffffff; stroke-width: 0.48"/>
     <use xlink:href="#m04bd676845" x="196.32221" y="210.252646" style="fill: #1f77b4; stroke: #ffffff; stroke-width: 0.48"/>
     <use xlink:href="#m04bd676845" x="253.833014" y="198.059751" style="fill: #1f77b4; stroke: #ffffff; stroke-width: 0.48"/>
     <use xlink:href="#m04bd676845" x="368.039085" y="98.441465" style="fill: #1f77b4; stroke: #ffffff; stroke-width: 0.48"/>
     <use xlink:href="#m04bd676845" x="77.551465" y="166.57071" style="fill: #1f77b4; stroke: #ffffff; stroke-width: 0.48"/>
     <use xlink:href="#m04bd676845" x="98.066278" y="200.936198" style="fill: #1f77b4; stroke: #ffffff; stroke-width: 0.48"/>
     <use xlink:href="#m04bd676845" x="345.18249" y="76.8424" style="fill: #1f77b4; stroke: #ffffff; stroke-width: 0.48"/>
     <use xlink:href="#m04bd676845" x="167.681076" y="200.093828" style="fill: #1f77b4; stroke: #ffffff; stroke-width: 0.48"/>
     <use xlink:href="#m04bd676845" x="265.51234" y="195.208655" style="fill: #1f77b4; stroke: #ffffff; stroke-width: 0.48"/>
     <use xlink:href="#m04bd676845" x="311.252812" y="166.44281" style="fill: #1f77b4; stroke: #ffffff; stroke-width: 0.48"/>
     <use xlink:href="#m04bd676845" x="171.741754" y="186.29371" style="fill: #1f77b4; stroke: #ffffff; stroke-width: 0.48"/>
     <use xlink:href="#m04bd676845" x="68.460294" y="194.774115" style="fill: #1f77b4; stroke: #ffffff; stroke-width: 0.48"/>
     <use xlink:href="#m04bd676845" x="220.645905" y="206.003388" style="fill: #1f77b4; stroke: #ffffff; stroke-width: 0.48"/>
     <use xlink:href="#m04bd676845" x="101.190449" y="202.501437" style="fill: #1f77b4; stroke: #ffffff; stroke-width: 0.48"/>
     <use xlink:href="#m04bd676845" x="98.703863" y="208.935265" style="fill: #1f77b4; stroke: #ffffff; stroke-width: 0.48"/>
     <use xlink:href="#m04bd676845" x="379.649163" y="60.956045" style="fill: #1f77b4; stroke: #ffffff; stroke-width: 0.48"/>
     <use xlink:href="#m04bd676845" x="120.83855" y="233.672871" style="fill: #1f77b4; stroke: #ffffff; stroke-width: 0.48"/>
    </g>
   </g>
   <g id="matplotlib.axis_1">
    <g id="xtick_1">
     <g id="line2d_1">
      <defs>
       <path id="m9b00c60b20" d="M 0 0 
L 0 3.5 
" style="stroke: #000000; stroke-width: 0.8"/>
      </defs>
      <g>
       <use xlink:href="#m9b00c60b20" x="55.278324" y="288.430125" style="stroke: #000000; stroke-width: 0.8"/>
      </g>
     </g>
     <g id="text_1">
      <!-- −3 -->
      <g transform="translate(47.907231 303.027781) scale(0.1 -0.1)">
       <defs>
        <path id="DejaVuSans-c9c" d="M 678 2272 
L 4684 2272 
L 4684 1741 
L 678 1741 
L 678 2272 
z
" transform="scale(0.015625)"/>
        <path id="DejaVuSans-16" d="M 2597 2516 
Q 3050 2419 3304 2112 
Q 3559 1806 3559 1356 
Q 3559 666 3084 287 
Q 2609 -91 1734 -91 
Q 1441 -91 1130 -33 
Q 819 25 488 141 
L 488 750 
Q 750 597 1062 519 
Q 1375 441 1716 441 
Q 2309 441 2620 675 
Q 2931 909 2931 1356 
Q 2931 1769 2642 2001 
Q 2353 2234 1838 2234 
L 1294 2234 
L 1294 2753 
L 1863 2753 
Q 2328 2753 2575 2939 
Q 2822 3125 2822 3475 
Q 2822 3834 2567 4026 
Q 2313 4219 1838 4219 
Q 1578 4219 1281 4162 
Q 984 4106 628 3988 
L 628 4550 
Q 988 4650 1302 4700 
Q 1616 4750 1894 4750 
Q 2613 4750 3031 4423 
Q 3450 4097 3450 3541 
Q 3450 3153 3228 2886 
Q 3006 2619 2597 2516 
z
" transform="scale(0.015625)"/>
       </defs>
       <use xlink:href="#DejaVuSans-c9c"/>
       <use xlink:href="#DejaVuSans-16" transform="translate(83.796875 0)"/>
      </g>
     </g>
    </g>
    <g id="xtick_2">
     <g id="line2d_2">
      <g>
       <use xlink:href="#m9b00c60b20" x="110.212662" y="288.430125" style="stroke: #000000; stroke-width: 0.8"/>
      </g>
     </g>
     <g id="text_2">
      <!-- −2 -->
      <g transform="translate(102.841569 303.027781) scale(0.1 -0.1)">
       <defs>
        <path id="DejaVuSans-15" d="M 1228 531 
L 3431 531 
L 3431 0 
L 469 0 
L 469 531 
Q 828 903 1448 1529 
Q 2069 2156 2228 2338 
Q 2531 2678 2651 2914 
Q 2772 3150 2772 3378 
Q 2772 3750 2511 3984 
Q 2250 4219 1831 4219 
Q 1534 4219 1204 4116 
Q 875 4013 500 3803 
L 500 4441 
Q 881 4594 1212 4672 
Q 1544 4750 1819 4750 
Q 2544 4750 2975 4387 
Q 3406 4025 3406 3419 
Q 3406 3131 3298 2873 
Q 3191 2616 2906 2266 
Q 2828 2175 2409 1742 
Q 1991 1309 1228 531 
z
" transform="scale(0.015625)"/>
       </defs>
       <use xlink:href="#DejaVuSans-c9c"/>
       <use xlink:href="#DejaVuSans-15" transform="translate(83.796875 0)"/>
      </g>
     </g>
    </g>
    <g id="xtick_3">
     <g id="line2d_3">
      <g>
       <use xlink:href="#m9b00c60b20" x="165.147" y="288.430125" style="stroke: #000000; stroke-width: 0.8"/>
      </g>
     </g>
     <g id="text_3">
      <!-- −1 -->
      <g transform="translate(157.775907 303.027781) scale(0.1 -0.1)">
       <defs>
        <path id="DejaVuSans-14" d="M 794 531 
L 1825 531 
L 1825 4091 
L 703 3866 
L 703 4441 
L 1819 4666 
L 2450 4666 
L 2450 531 
L 3481 531 
L 3481 0 
L 794 0 
L 794 531 
z
" transform="scale(0.015625)"/>
       </defs>
       <use xlink:href="#DejaVuSans-c9c"/>
       <use xlink:href="#DejaVuSans-14" transform="translate(83.796875 0)"/>
      </g>
     </g>
    </g>
    <g id="xtick_4">
     <g id="line2d_4">
      <g>
       <use xlink:href="#m9b00c60b20" x="220.081339" y="288.430125" style="stroke: #000000; stroke-width: 0.8"/>
      </g>
     </g>
     <g id="text_4">
      <!-- 0 -->
      <g transform="translate(216.900089 303.027781) scale(0.1 -0.1)">
       <defs>
        <path id="DejaVuSans-13" d="M 2034 4250 
Q 1547 4250 1301 3770 
Q 1056 3291 1056 2328 
Q 1056 1369 1301 889 
Q 1547 409 2034 409 
Q 2525 409 2770 889 
Q 3016 1369 3016 2328 
Q 3016 3291 2770 3770 
Q 2525 4250 2034 4250 
z
M 2034 4750 
Q 2819 4750 3233 4129 
Q 3647 3509 3647 2328 
Q 3647 1150 3233 529 
Q 2819 -91 2034 -91 
Q 1250 -91 836 529 
Q 422 1150 422 2328 
Q 422 3509 836 4129 
Q 1250 4750 2034 4750 
z
" transform="scale(0.015625)"/>
       </defs>
       <use xlink:href="#DejaVuSans-13"/>
      </g>
     </g>
    </g>
    <g id="xtick_5">
     <g id="line2d_5">
      <g>
       <use xlink:href="#m9b00c60b20" x="275.015677" y="288.430125" style="stroke: #000000; stroke-width: 0.8"/>
      </g>
     </g>
     <g id="text_5">
      <!-- 1 -->
      <g transform="translate(271.834427 303.027781) scale(0.1 -0.1)">
       <use xlink:href="#DejaVuSans-14"/>
      </g>
     </g>
    </g>
    <g id="xtick_6">
     <g id="line2d_6">
      <g>
       <use xlink:href="#m9b00c60b20" x="329.950015" y="288.430125" style="stroke: #000000; stroke-width: 0.8"/>
      </g>
     </g>
     <g id="text_6">
      <!-- 2 -->
      <g transform="translate(326.768765 303.027781) scale(0.1 -0.1)">
       <use xlink:href="#DejaVuSans-15"/>
      </g>
     </g>
    </g>
    <g id="xtick_7">
     <g id="line2d_7">
      <g>
       <use xlink:href="#m9b00c60b20" x="384.884353" y="288.430125" style="stroke: #000000; stroke-width: 0.8"/>
      </g>
     </g>
     <g id="text_7">
      <!-- 3 -->
      <g transform="translate(381.703103 303.027781) scale(0.1 -0.1)">
       <use xlink:href="#DejaVuSans-16"/>
      </g>
     </g>
    </g>
    <g id="text_8">
     <!-- X -->
     <g transform="translate(218.077188 317.027781) scale(0.1 -0.1)">
      <defs>
       <path id="DejaVuSans-3b" d="M 403 4666 
L 1081 4666 
L 2241 2931 
L 3406 4666 
L 4084 4666 
L 2584 2425 
L 4184 0 
L 3506 0 
L 2194 1984 
L 872 0 
L 191 0 
L 1856 2491 
L 403 4666 
z
" transform="scale(0.015625)"/>
      </defs>
      <use xlink:href="#DejaVuSans-3b"/>
     </g>
    </g>
   </g>
   <g id="matplotlib.axis_2">
    <g id="ytick_1">
     <g id="line2d_8">
      <defs>
       <path id="mc6c8832ce8" d="M 0 0 
L -3.5 0 
" style="stroke: #000000; stroke-width: 0.8"/>
      </defs>
      <g>
       <use xlink:href="#mc6c8832ce8" x="42.942188" y="287.858403" style="stroke: #000000; stroke-width: 0.8"/>
      </g>
     </g>
     <g id="text_9">
      <!-- −2 -->
      <g transform="translate(21.2 291.657231) scale(0.1 -0.1)">
       <use xlink:href="#DejaVuSans-c9c"/>
       <use xlink:href="#DejaVuSans-15" transform="translate(83.796875 0)"/>
      </g>
     </g>
    </g>
    <g id="ytick_2">
     <g id="line2d_9">
      <g>
       <use xlink:href="#mc6c8832ce8" x="42.942188" y="248.292259" style="stroke: #000000; stroke-width: 0.8"/>
      </g>
     </g>
     <g id="text_10">
      <!-- 0 -->
      <g transform="translate(29.579688 252.091087) scale(0.1 -0.1)">
       <use xlink:href="#DejaVuSans-13"/>
      </g>
     </g>
    </g>
    <g id="ytick_3">
     <g id="line2d_10">
      <g>
       <use xlink:href="#mc6c8832ce8" x="42.942188" y="208.726114" style="stroke: #000000; stroke-width: 0.8"/>
      </g>
     </g>
     <g id="text_11">
      <!-- 2 -->
      <g transform="translate(29.579688 212.524942) scale(0.1 -0.1)">
       <use xlink:href="#DejaVuSans-15"/>
      </g>
     </g>
    </g>
    <g id="ytick_4">
     <g id="line2d_11">
      <g>
       <use xlink:href="#mc6c8832ce8" x="42.942188" y="169.15997" style="stroke: #000000; stroke-width: 0.8"/>
      </g>
     </g>
     <g id="text_12">
      <!-- 4 -->
      <g transform="translate(29.579688 172.958798) scale(0.1 -0.1)">
       <defs>
        <path id="DejaVuSans-17" d="M 2419 4116 
L 825 1625 
L 2419 1625 
L 2419 4116 
z
M 2253 4666 
L 3047 4666 
L 3047 1625 
L 3713 1625 
L 3713 1100 
L 3047 1100 
L 3047 0 
L 2419 0 
L 2419 1100 
L 313 1100 
L 313 1709 
L 2253 4666 
z
" transform="scale(0.015625)"/>
       </defs>
       <use xlink:href="#DejaVuSans-17"/>
      </g>
     </g>
    </g>
    <g id="ytick_5">
     <g id="line2d_12">
      <g>
       <use xlink:href="#mc6c8832ce8" x="42.942188" y="129.593826" style="stroke: #000000; stroke-width: 0.8"/>
      </g>
     </g>
     <g id="text_13">
      <!-- 6 -->
      <g transform="translate(29.579688 133.392654) scale(0.1 -0.1)">
       <defs>
        <path id="DejaVuSans-19" d="M 2113 2584 
Q 1688 2584 1439 2293 
Q 1191 2003 1191 1497 
Q 1191 994 1439 701 
Q 1688 409 2113 409 
Q 2538 409 2786 701 
Q 3034 994 3034 1497 
Q 3034 2003 2786 2293 
Q 2538 2584 2113 2584 
z
M 3366 4563 
L 3366 3988 
Q 3128 4100 2886 4159 
Q 2644 4219 2406 4219 
Q 1781 4219 1451 3797 
Q 1122 3375 1075 2522 
Q 1259 2794 1537 2939 
Q 1816 3084 2150 3084 
Q 2853 3084 3261 2657 
Q 3669 2231 3669 1497 
Q 3669 778 3244 343 
Q 2819 -91 2113 -91 
Q 1303 -91 875 529 
Q 447 1150 447 2328 
Q 447 3434 972 4092 
Q 1497 4750 2381 4750 
Q 2619 4750 2861 4703 
Q 3103 4656 3366 4563 
z
" transform="scale(0.015625)"/>
       </defs>
       <use xlink:href="#DejaVuSans-19"/>
      </g>
     </g>
    </g>
    <g id="ytick_6">
     <g id="line2d_13">
      <g>
       <use xlink:href="#mc6c8832ce8" x="42.942188" y="90.027681" style="stroke: #000000; stroke-width: 0.8"/>
      </g>
     </g>
     <g id="text_14">
      <!-- 8 -->
      <g transform="translate(29.579688 93.826509) scale(0.1 -0.1)">
       <defs>
        <path id="DejaVuSans-1b" d="M 2034 2216 
Q 1584 2216 1326 1975 
Q 1069 1734 1069 1313 
Q 1069 891 1326 650 
Q 1584 409 2034 409 
Q 2484 409 2743 651 
Q 3003 894 3003 1313 
Q 3003 1734 2745 1975 
Q 2488 2216 2034 2216 
z
M 1403 2484 
Q 997 2584 770 2862 
Q 544 3141 544 3541 
Q 544 4100 942 4425 
Q 1341 4750 2034 4750 
Q 2731 4750 3128 4425 
Q 3525 4100 3525 3541 
Q 3525 3141 3298 2862 
Q 3072 2584 2669 2484 
Q 3125 2378 3379 2068 
Q 3634 1759 3634 1313 
Q 3634 634 3220 271 
Q 2806 -91 2034 -91 
Q 1263 -91 848 271 
Q 434 634 434 1313 
Q 434 1759 690 2068 
Q 947 2378 1403 2484 
z
M 1172 3481 
Q 1172 3119 1398 2916 
Q 1625 2713 2034 2713 
Q 2441 2713 2670 2916 
Q 2900 3119 2900 3481 
Q 2900 3844 2670 4047 
Q 2441 4250 2034 4250 
Q 1625 4250 1398 4047 
Q 1172 3844 1172 3481 
z
" transform="scale(0.015625)"/>
       </defs>
       <use xlink:href="#DejaVuSans-1b"/>
      </g>
     </g>
    </g>
    <g id="ytick_7">
     <g id="line2d_14">
      <g>
       <use xlink:href="#mc6c8832ce8" x="42.942188" y="50.461537" style="stroke: #000000; stroke-width: 0.8"/>
      </g>
     </g>
     <g id="text_15">
      <!-- 10 -->
      <g transform="translate(23.217188 54.260365) scale(0.1 -0.1)">
       <use xlink:href="#DejaVuSans-14"/>
       <use xlink:href="#DejaVuSans-13" transform="translate(63.625 0)"/>
      </g>
     </g>
    </g>
    <g id="text_16">
     <!-- y -->
     <g transform="translate(14.797656 158.3335) rotate(-90) scale(0.1 -0.1)">
      <defs>
       <path id="DejaVuSans-5c" d="M 2059 -325 
Q 1816 -950 1584 -1140 
Q 1353 -1331 966 -1331 
L 506 -1331 
L 506 -850 
L 844 -850 
Q 1081 -850 1212 -737 
Q 1344 -625 1503 -206 
L 1606 56 
L 191 3500 
L 800 3500 
L 1894 763 
L 2988 3500 
L 3597 3500 
L 2059 -325 
z
" transform="scale(0.015625)"/>
      </defs>
      <use xlink:href="#DejaVuSans-5c"/>
     </g>
    </g>
   </g>
   <g id="patch_3">
    <path d="M 42.942188 288.430125 
L 42.942188 22.318125 
" style="fill: none; stroke: #000000; stroke-width: 0.8; stroke-linejoin: miter; stroke-linecap: square"/>
   </g>
   <g id="patch_4">
    <path d="M 400.062188 288.430125 
L 400.062188 22.318125 
" style="fill: none; stroke: #000000; stroke-width: 0.8; stroke-linejoin: miter; stroke-linecap: square"/>
   </g>
   <g id="patch_5">
    <path d="M 42.942188 288.430125 
L 400.062188 288.430125 
" style="fill: none; stroke: #000000; stroke-width: 0.8; stroke-linejoin: miter; stroke-linecap: square"/>
   </g>
   <g id="patch_6">
    <path d="M 42.942188 22.318125 
L 400.062188 22.318125 
" style="fill: none; stroke: #000000; stroke-width: 0.8; stroke-linejoin: miter; stroke-linecap: square"/>
   </g>
   <g id="text_17">
    <!-- Scatter Plot of X vs y -->
    <g transform="translate(158.890313 16.318125) scale(0.12 -0.12)">
     <defs>
      <path id="DejaVuSans-36" d="M 3425 4513 
L 3425 3897 
Q 3066 4069 2747 4153 
Q 2428 4238 2131 4238 
Q 1616 4238 1336 4038 
Q 1056 3838 1056 3469 
Q 1056 3159 1242 3001 
Q 1428 2844 1947 2747 
L 2328 2669 
Q 3034 2534 3370 2195 
Q 3706 1856 3706 1288 
Q 3706 609 3251 259 
Q 2797 -91 1919 -91 
Q 1588 -91 1214 -16 
Q 841 59 441 206 
L 441 856 
Q 825 641 1194 531 
Q 1563 422 1919 422 
Q 2459 422 2753 634 
Q 3047 847 3047 1241 
Q 3047 1584 2836 1778 
Q 2625 1972 2144 2069 
L 1759 2144 
Q 1053 2284 737 2584 
Q 422 2884 422 3419 
Q 422 4038 858 4394 
Q 1294 4750 2059 4750 
Q 2388 4750 2728 4690 
Q 3069 4631 3425 4513 
z
" transform="scale(0.015625)"/>
      <path id="DejaVuSans-46" d="M 3122 3366 
L 3122 2828 
Q 2878 2963 2633 3030 
Q 2388 3097 2138 3097 
Q 1578 3097 1268 2742 
Q 959 2388 959 1747 
Q 959 1106 1268 751 
Q 1578 397 2138 397 
Q 2388 397 2633 464 
Q 2878 531 3122 666 
L 3122 134 
Q 2881 22 2623 -34 
Q 2366 -91 2075 -91 
Q 1284 -91 818 406 
Q 353 903 353 1747 
Q 353 2603 823 3093 
Q 1294 3584 2113 3584 
Q 2378 3584 2631 3529 
Q 2884 3475 3122 3366 
z
" transform="scale(0.015625)"/>
      <path id="DejaVuSans-44" d="M 2194 1759 
Q 1497 1759 1228 1600 
Q 959 1441 959 1056 
Q 959 750 1161 570 
Q 1363 391 1709 391 
Q 2188 391 2477 730 
Q 2766 1069 2766 1631 
L 2766 1759 
L 2194 1759 
z
M 3341 1997 
L 3341 0 
L 2766 0 
L 2766 531 
Q 2569 213 2275 61 
Q 1981 -91 1556 -91 
Q 1019 -91 701 211 
Q 384 513 384 1019 
Q 384 1609 779 1909 
Q 1175 2209 1959 2209 
L 2766 2209 
L 2766 2266 
Q 2766 2663 2505 2880 
Q 2244 3097 1772 3097 
Q 1472 3097 1187 3025 
Q 903 2953 641 2809 
L 641 3341 
Q 956 3463 1253 3523 
Q 1550 3584 1831 3584 
Q 2591 3584 2966 3190 
Q 3341 2797 3341 1997 
z
" transform="scale(0.015625)"/>
      <path id="DejaVuSans-57" d="M 1172 4494 
L 1172 3500 
L 2356 3500 
L 2356 3053 
L 1172 3053 
L 1172 1153 
Q 1172 725 1289 603 
Q 1406 481 1766 481 
L 2356 481 
L 2356 0 
L 1766 0 
Q 1100 0 847 248 
Q 594 497 594 1153 
L 594 3053 
L 172 3053 
L 172 3500 
L 594 3500 
L 594 4494 
L 1172 4494 
z
" transform="scale(0.015625)"/>
      <path id="DejaVuSans-48" d="M 3597 1894 
L 3597 1613 
L 953 1613 
Q 991 1019 1311 708 
Q 1631 397 2203 397 
Q 2534 397 2845 478 
Q 3156 559 3463 722 
L 3463 178 
Q 3153 47 2828 -22 
Q 2503 -91 2169 -91 
Q 1331 -91 842 396 
Q 353 884 353 1716 
Q 353 2575 817 3079 
Q 1281 3584 2069 3584 
Q 2775 3584 3186 3129 
Q 3597 2675 3597 1894 
z
M 3022 2063 
Q 3016 2534 2758 2815 
Q 2500 3097 2075 3097 
Q 1594 3097 1305 2825 
Q 1016 2553 972 2059 
L 3022 2063 
z
" transform="scale(0.015625)"/>
      <path id="DejaVuSans-55" d="M 2631 2963 
Q 2534 3019 2420 3045 
Q 2306 3072 2169 3072 
Q 1681 3072 1420 2755 
Q 1159 2438 1159 1844 
L 1159 0 
L 581 0 
L 581 3500 
L 1159 3500 
L 1159 2956 
Q 1341 3275 1631 3429 
Q 1922 3584 2338 3584 
Q 2397 3584 2469 3576 
Q 2541 3569 2628 3553 
L 2631 2963 
z
" transform="scale(0.015625)"/>
      <path id="DejaVuSans-3" transform="scale(0.015625)"/>
      <path id="DejaVuSans-33" d="M 1259 4147 
L 1259 2394 
L 2053 2394 
Q 2494 2394 2734 2622 
Q 2975 2850 2975 3272 
Q 2975 3691 2734 3919 
Q 2494 4147 2053 4147 
L 1259 4147 
z
M 628 4666 
L 2053 4666 
Q 2838 4666 3239 4311 
Q 3641 3956 3641 3272 
Q 3641 2581 3239 2228 
Q 2838 1875 2053 1875 
L 1259 1875 
L 1259 0 
L 628 0 
L 628 4666 
z
" transform="scale(0.015625)"/>
      <path id="DejaVuSans-4f" d="M 603 4863 
L 1178 4863 
L 1178 0 
L 603 0 
L 603 4863 
z
" transform="scale(0.015625)"/>
      <path id="DejaVuSans-52" d="M 1959 3097 
Q 1497 3097 1228 2736 
Q 959 2375 959 1747 
Q 959 1119 1226 758 
Q 1494 397 1959 397 
Q 2419 397 2687 759 
Q 2956 1122 2956 1747 
Q 2956 2369 2687 2733 
Q 2419 3097 1959 3097 
z
M 1959 3584 
Q 2709 3584 3137 3096 
Q 3566 2609 3566 1747 
Q 3566 888 3137 398 
Q 2709 -91 1959 -91 
Q 1206 -91 779 398 
Q 353 888 353 1747 
Q 353 2609 779 3096 
Q 1206 3584 1959 3584 
z
" transform="scale(0.015625)"/>
      <path id="DejaVuSans-49" d="M 2375 4863 
L 2375 4384 
L 1825 4384 
Q 1516 4384 1395 4259 
Q 1275 4134 1275 3809 
L 1275 3500 
L 2222 3500 
L 2222 3053 
L 1275 3053 
L 1275 0 
L 697 0 
L 697 3053 
L 147 3053 
L 147 3500 
L 697 3500 
L 697 3744 
Q 697 4328 969 4595 
Q 1241 4863 1831 4863 
L 2375 4863 
z
" transform="scale(0.015625)"/>
      <path id="DejaVuSans-59" d="M 191 3500 
L 800 3500 
L 1894 563 
L 2988 3500 
L 3597 3500 
L 2284 0 
L 1503 0 
L 191 3500 
z
" transform="scale(0.015625)"/>
      <path id="DejaVuSans-56" d="M 2834 3397 
L 2834 2853 
Q 2591 2978 2328 3040 
Q 2066 3103 1784 3103 
Q 1356 3103 1142 2972 
Q 928 2841 928 2578 
Q 928 2378 1081 2264 
Q 1234 2150 1697 2047 
L 1894 2003 
Q 2506 1872 2764 1633 
Q 3022 1394 3022 966 
Q 3022 478 2636 193 
Q 2250 -91 1575 -91 
Q 1294 -91 989 -36 
Q 684 19 347 128 
L 347 722 
Q 666 556 975 473 
Q 1284 391 1588 391 
Q 1994 391 2212 530 
Q 2431 669 2431 922 
Q 2431 1156 2273 1281 
Q 2116 1406 1581 1522 
L 1381 1569 
Q 847 1681 609 1914 
Q 372 2147 372 2553 
Q 372 3047 722 3315 
Q 1072 3584 1716 3584 
Q 2034 3584 2315 3537 
Q 2597 3491 2834 3397 
z
" transform="scale(0.015625)"/>
     </defs>
     <use xlink:href="#DejaVuSans-36"/>
     <use xlink:href="#DejaVuSans-46" transform="translate(63.484375 0)"/>
     <use xlink:href="#DejaVuSans-44" transform="translate(118.46875 0)"/>
     <use xlink:href="#DejaVuSans-57" transform="translate(179.75 0)"/>
     <use xlink:href="#DejaVuSans-57" transform="translate(218.953125 0)"/>
     <use xlink:href="#DejaVuSans-48" transform="translate(258.15625 0)"/>
     <use xlink:href="#DejaVuSans-55" transform="translate(319.6875 0)"/>
     <use xlink:href="#DejaVuSans-3" transform="translate(360.796875 0)"/>
     <use xlink:href="#DejaVuSans-33" transform="translate(392.578125 0)"/>
     <use xlink:href="#DejaVuSans-4f" transform="translate(452.875 0)"/>
     <use xlink:href="#DejaVuSans-52" transform="translate(480.65625 0)"/>
     <use xlink:href="#DejaVuSans-57" transform="translate(541.84375 0)"/>
     <use xlink:href="#DejaVuSans-3" transform="translate(581.046875 0)"/>
     <use xlink:href="#DejaVuSans-52" transform="translate(612.828125 0)"/>
     <use xlink:href="#DejaVuSans-49" transform="translate(674.015625 0)"/>
     <use xlink:href="#DejaVuSans-3" transform="translate(709.21875 0)"/>
     <use xlink:href="#DejaVuSans-3b" transform="translate(741 0)"/>
     <use xlink:href="#DejaVuSans-3" transform="translate(809.5 0)"/>
     <use xlink:href="#DejaVuSans-59" transform="translate(841.28125 0)"/>
     <use xlink:href="#DejaVuSans-56" transform="translate(900.46875 0)"/>
     <use xlink:href="#DejaVuSans-3" transform="translate(952.5625 0)"/>
     <use xlink:href="#DejaVuSans-5c" transform="translate(984.34375 0)"/>
    </g>
   </g>
  </g>
 </g>
 <defs>
  <clipPath id="pb279598345">
   <rect x="42.942188" y="22.318125" width="357.12" height="266.112"/>
  </clipPath>
 </defs>
</svg>
